# xmcd
#
# Track frame offsets:
#	150
#	8875
#	60602
#	117802
#	165107
#	213852
#	243425
#
# Disc length: 4047 seconds
#
# Revision: 1
# Processed by: cddbd v1.5.1PL0 Copyright (c) Steve Scherf et al.
# Submitted via: CDex 1.50Beta5
#
DISCID=4c0fcd07
DTITLE=ロイヤルフィルハーモニー - 気分転換のクラシック
DYEAR=1900
DGENRE=Classical
TTITLE0=ツァラトゥストラはかく語りき
TTITLE1=革命
TTITLE2=メフィストワルツ
TTITLE3=舞踏への勧誘
TTITLE4=時の踊り
TTITLE5=コッペリアから序奏とマズルカ
TTITLE6=ボレロ
EXTD=
EXTT0=
EXTT1=
EXTT2=
EXTT3=
EXTT4=
EXTT5=
EXTT6=
PLAYORDER=
